<?xml version="1.0" encoding="UTF-8" standalone="no"?>
<!-- Created with Inkscape (http://www.inkscape.org/) -->

<svg
   width="640"
   height="640"
   viewBox="0 0 640 640"
   version="1.1"
   id="svg1"
   inkscape:version="1.4 (86a8ad7, 2024-10-11)"
   sodipodi:docname="logo.svg"
   inkscape:export-filename="logo.png"
   inkscape:export-xdpi="96"
   inkscape:export-ydpi="96"
   xmlns:inkscape="http://www.inkscape.org/namespaces/inkscape"
   xmlns:sodipodi="http://sodipodi.sourceforge.net/DTD/sodipodi-0.dtd"
   xmlns="http://www.w3.org/2000/svg"
   xmlns:svg="http://www.w3.org/2000/svg">
  <sodipodi:namedview
     id="namedview1"
     pagecolor="#505050"
     bordercolor="#eeeeee"
     borderopacity="1"
     inkscape:showpageshadow="0"
     inkscape:pageopacity="0"
     inkscape:pagecheckerboard="0"
     inkscape:deskcolor="#505050"
     inkscape:document-units="px"
     inkscape:zoom="0.49264169"
     inkscape:cx="473.97531"
     inkscape:cy="183.70349"
     inkscape:window-width="1366"
     inkscape:window-height="705"
     inkscape:window-x="-8"
     inkscape:window-y="-8"
     inkscape:window-maximized="1"
     inkscape:current-layer="layer1" />
  <defs
     id="defs1">
    <linearGradient
       id="swatch15"
       inkscape:swatch="solid">
      <stop
         style="stop-color:#000000;stop-opacity:1;"
         offset="0"
         id="stop15" />
    </linearGradient>
  </defs>
  <path
     id="rect7"
     style="fill:#ffffff;fill-rule:evenodd;stroke-width:32;stroke-dashoffset:112;paint-order:stroke fill markers;stroke:#ffffff;stroke-opacity:1;stroke-dasharray:none"
     d="m 243.47949,56.486328 c -32.19212,0 -64.38474,9.92771 -84.24024,29.783203 -44.73466,44.734669 -44.73466,145.058299 0,189.792969 13.15725,13.15725 42.66307,-13.15725 55.82032,0 7.92789,7.92789 6.74896,25.87765 4.32226,39.92578 h -2.88086 c -22.03414,0 -41.11338,12.19571 -50.88672,30.23242 -1.77706,3.2794 -3.24756,6.7515 -4.37109,10.37891 -1.68529,5.44111 -2.5918,11.23092 -2.5918,17.24023 v 152.24024 c 0,6.00931 0.90651,11.79912 2.5918,17.24023 1.12353,3.62741 2.59403,7.09952 4.37109,10.37891 3.55395,6.55881 8.3371,12.34622 14.04688,17.05469 3.7e-4,3e-4 0.002,-3.1e-4 0.002,0 1.42708,1.17674 2.91133,2.28691 4.44922,3.32421 4.4e-4,3e-4 0.002,-2.9e-4 0.002,0 1.5379,1.03725 3.12842,2.00236 4.76758,2.89063 4.9e-4,2.7e-4 0.001,-2.7e-4 0.002,0 3.27884,1.7767 6.75018,3.24774 10.37695,4.37109 5.9e-4,1.9e-4 0.001,-1.8e-4 0.002,0 1.8131,0.56153 3.66505,1.03599 5.55078,1.41993 6.3e-4,1.2e-4 0.001,-1.3e-4 0.002,0 1.88575,0.38387 3.80504,0.67826 5.7539,0.875 6.5e-4,6e-5 0.001,-7e-5 0.002,0 1.94888,0.19667 3.92724,0.29687 5.92968,0.29687 h 0.002 107.15625 99.62695 c 32.04966,0 57.85156,-25.8019 57.85156,-57.85156 V 373.83984 c 0,-32.04966 -25.8019,-57.85156 -57.85156,-57.85156 h -2.66601 c -2.42672,-14.04814 -3.60761,-31.99786 4.32031,-39.92578 13.15725,-13.15725 42.66306,13.15725 55.82031,0 44.73467,-44.73467 44.73467,-145.0583 0,-189.792969 C 443.44715,48.955942 362.57508,46.711269 320.00098,79.519531 300.08155,64.168747 271.78523,56.486328 243.47949,56.486328 Z m -6.125,87.150392 c 25.97325,0.46288 60.76264,22.21255 82.64649,12.80273 28.79406,12.37877 79.93769,-29.20098 103.92382,-5.21484 15.31026,15.31026 15.31026,49.64677 0,64.95703 -13.39648,13.39648 -43.43945,-13.39648 -56.83593,0 -19.88558,19.88557 -11.99763,70.84182 -5.42969,99.80664 h -38 -45.31836 c 6.56793,-28.96482 14.45588,-79.92107 -5.42969,-99.80664 -13.39648,-13.39648 -43.43946,13.39648 -56.83594,0 -15.31026,-15.31026 -15.31026,-49.64677 0,-64.95703 5.7563,-5.7563 13.07812,-7.73405 21.2793,-7.58789 z" />
  <g
     inkscape:label="Camada 1"
     inkscape:groupmode="layer"
     id="layer1">
    <rect
       style="fill:#ffff00;fill-rule:evenodd;stroke-width:21.9414;stroke-dashoffset:112;paint-order:stroke fill markers"
       id="rect9"
       width="322.48602"
       height="267.94321"
       x="158.75699"
       y="315.98837"
       ry="57.851376" />
    <path
       id="path9"
       style="display:inline;fill:#000080;fill-rule:evenodd;stroke-width:21.9414;stroke-dashoffset:112;paint-order:stroke fill markers"
       d="m 216.60742,315.98834 c -32.04966,0 -57.84961,25.8019 -57.84961,57.85156 v 152.24023 c 0,32.04967 25.79995,57.85157 57.84961,57.85157 h 107.1582 V 315.98834 Z" />
    <path
       style="display:inline;fill:#ffff00;fill-rule:evenodd;stroke-width:20;stroke-dashoffset:112;paint-order:stroke fill markers"
       d="m 425.04576,334.92903 c 0,0 -13.87492,-44.9914 0,-58.86632 13.15725,-13.15725 42.66425,13.15725 55.8215,0 44.73467,-44.73467 44.73467,-145.05845 0,-189.793114 -39.71099,-39.710987 -128.76846,-39.710987 -168.47945,0 -15.31026,15.310264 -15.31026,49.645674 0,64.955934 26.31451,26.31451 85.3285,-26.31451 111.64301,0 15.31026,15.31026 15.31026,49.64567 0,64.95593 -13.39648,13.39648 -43.43996,-13.39648 -56.83644,0 -28.46752,28.46752 0,120.77744 0,120.77744 z"
       id="path10"
       sodipodi:nodetypes="csssssssscc" />
    <circle
       style="fill:#ffffff;fill-rule:evenodd;stroke-width:20;stroke-dashoffset:112;paint-order:stroke fill markers"
       id="path4"
       cx="-356.53754"
       cy="104.53845"
       r="10.149364"
       transform="scale(-1,1)" />
    <path
       style="display:inline;fill:#000080;fill-rule:evenodd;stroke-width:20;stroke-dashoffset:112;paint-order:stroke fill markers"
       d="m 215.16652,334.92903 c 0,0 13.87492,-44.9914 0,-58.86632 -13.15725,-13.15725 -42.66425,13.15725 -55.8215,0 -44.73467,-44.73467 -44.73467,-145.05845 0,-189.793114 39.71099,-39.710987 128.76846,-39.710987 168.47945,0 15.31026,15.310264 15.31026,49.645674 0,64.955934 -26.31451,26.31451 -85.3285,-26.31451 -111.64301,0 -15.31026,15.31026 -15.31026,49.64567 0,64.95593 13.39648,13.39648 43.43996,-13.39648 56.83644,0 28.46752,28.46752 0,120.77744 0,120.77744 z"
       id="path11"
       sodipodi:nodetypes="csssssssscc" />
    <circle
       style="fill:#ffffff;fill-rule:evenodd;stroke-width:20;stroke-dashoffset:112;paint-order:stroke fill markers"
       id="circle5"
       cx="283.67474"
       cy="104.53845"
       r="10.149364" />
    <path
       id="path1"
       style="fill:#ffffff;fill-rule:evenodd;stroke-width:3.56454;stroke-dashoffset:112;paint-order:stroke fill markers"
       d="M 320 354.01172 A 53.543232 53.543232 0 0 0 266.45703 407.55469 A 53.543232 53.543232 0 0 0 297.03516 455.86523 L 297.03516 513.85156 C 297.03516 526.57439 307.27717 536.81641 320 536.81641 C 332.72283 536.81641 342.96484 526.57439 342.96484 513.85156 L 342.96484 455.86523 A 53.543232 53.543232 0 0 0 373.54297 407.55469 A 53.543232 53.543232 0 0 0 320 354.01172 z " />
  </g>
</svg>
